<svg width="343" height="48" viewBox="0 0 343 48" fill="none" xmlns="http://www.w3.org/2000/svg">
<path d="M40.96 41.28C40.96 43.072 40.288 44.64 38.944 45.984C37.6 47.328 36.032 48 34.24 48H0.64V14.4L7.36 7.68H0.64V0.959999H34.24C36.032 0.959999 37.6 1.632 38.944 2.976C40.288 4.32 40.96 5.888 40.96 7.68V41.28ZM33.28 41.28V7.68H8.32V47.04L14.08 41.28H33.28ZM65.4138 48H57.7338V0.959999H65.4138V48ZM116.271 48H82.6713V14.4L89.3913 7.68H82.6713V0.959999H116.271V7.68H90.3513V26.88L96.1113 21.12H116.271V27.84H90.3513V41.28H116.271V48ZM170.991 48H163.311V42.24L157.551 48H137.391C135.535 48 133.935 47.36 132.591 46.08C131.311 44.736 130.671 43.136 130.671 41.28V0.959999H138.351V41.28H163.311V0.959999H170.991V48ZM241.053 48H207.453V14.4L214.173 7.68H207.453V0.959999H241.053V7.68H215.133V26.88L220.893 21.12H241.053V27.84H215.133V41.28H241.053V48ZM293.853 27.84C293.853 29.696 293.181 31.296 291.837 32.64C290.557 33.92 288.989 34.56 287.133 34.56H277.533V48H269.853V34.56H260.253C258.397 34.56 256.797 33.92 255.453 32.64C254.173 31.296 253.533 29.696 253.533 27.84V0.959999H261.213V27.84H286.173V0.959999H293.853V27.84ZM342.771 48H309.171V14.4L315.891 7.68H309.171V0.959999H342.771V7.68H316.851V26.88L322.611 21.12H342.771V27.84H316.851V41.28H342.771V48Z" fill="white"/>
</svg>
