<svg width="17" height="17" viewBox="0 0 17 17" fill="none" xmlns="http://www.w3.org/2000/svg">
<g clip-path="url(#clip0_498_441)">
<mask id="mask0_498_441" style="mask-type:alpha" maskUnits="userSpaceOnUse" x="1" y="1" width="16" height="16">
<ellipse cx="8.8174" cy="8.7527" rx="7.39259" ry="7.39247" fill="#D9D9D9"/>
</mask>
<g mask="url(#mask0_498_441)">
<rect x="0.75293" y="0.688232" width="16.1293" height="16.129" fill="#006FFD"/>
</g>
<path fill-rule="evenodd" clip-rule="evenodd" d="M7.2265 7.95519C7.2265 7.58403 7.52739 7.28314 7.89854 7.28314H8.81708C9.18824 7.28314 9.48912 7.58403 9.48912 7.95519V11.0847H10.2995C10.6707 11.0847 10.9716 11.3856 10.9716 11.7568C10.9716 12.1279 10.6707 12.4288 10.2995 12.4288H7.33464C6.96348 12.4288 6.6626 12.1279 6.6626 11.7568C6.6626 11.3856 6.96348 11.0847 7.33464 11.0847H8.14504V8.62723H7.89854C7.52739 8.62723 7.2265 8.32635 7.2265 7.95519Z" fill="white"/>
<path d="M9.64545 5.95602C9.64545 6.44167 9.25175 6.83538 8.7661 6.83538C8.28044 6.83538 7.88674 6.44167 7.88674 5.95602C7.88674 5.47036 8.28044 5.07666 8.7661 5.07666C9.25175 5.07666 9.64545 5.47036 9.64545 5.95602Z" fill="white"/>
</g>
<defs>
<clipPath id="clip0_498_441">
<rect width="16.1293" height="16.129" fill="white" transform="translate(0.75293 0.688232)"/>
</clipPath>
</defs>
</svg>
