<svg width="8" height="8" viewBox="0 0 8 8" fill="none" xmlns="http://www.w3.org/2000/svg">
<path id="Vector" d="M3.75 0.25C1.68375 0.25 0 1.93375 0 4C0 6.06625 1.68375 7.75 3.75 7.75C5.81625 7.75 7.5 6.06625 7.5 4C7.5 1.93375 5.81625 0.25 3.75 0.25ZM5.38125 5.33875C5.32875 5.42875 5.235 5.4775 5.1375 5.4775C5.08875 5.4775 5.04 5.46625 4.995 5.43625L3.8325 4.7425C3.54375 4.57 3.33 4.19125 3.33 3.8575V2.32C3.33 2.16625 3.4575 2.03875 3.61125 2.03875C3.765 2.03875 3.8925 2.16625 3.8925 2.32V3.8575C3.8925 3.9925 4.005 4.19125 4.12125 4.25875L5.28375 4.9525C5.41875 5.03125 5.46375 5.20375 5.38125 5.33875Z" fill="#FFAA00"/>
</svg>
