<svg width="20" height="23" viewBox="0 0 20 23" fill="none" xmlns="http://www.w3.org/2000/svg">
<path fill-rule="evenodd" clip-rule="evenodd" d="M18.168 6.75025C17.4845 5.55799 15.9712 5.15004 14.7885 5.83852C13.7598 6.43613 12.4741 5.68838 12.4741 4.49218C12.4741 3.11619 11.3659 2 9.9998 2C8.6337 2 7.52546 3.11619 7.52546 4.49218C7.52546 5.68838 6.23977 6.43613 5.21199 5.83852C4.02829 5.15004 2.51507 5.55799 1.83153 6.75025C1.14896 7.9425 1.55399 9.46665 2.73769 10.1541C3.76546 10.7527 3.76546 12.2473 2.73769 12.8459C1.55399 13.5343 1.14896 15.0585 1.83153 16.2498C2.51507 17.442 4.02829 17.85 5.21101 17.1625C6.23879 16.5639 7.52546 17.3116 7.52546 18.5078C7.52546 19.8838 8.6337 21 9.9998 21C11.3659 21 12.4741 19.8838 12.4741 18.5078C12.4741 17.3116 13.7598 16.5639 14.7885 17.1625C15.9712 17.85 17.4845 17.442 18.168 16.2498C18.8515 15.0585 18.4455 13.5343 17.2628 12.8459C16.2351 12.2473 16.2341 10.7527 17.2628 10.1541C18.4455 9.46665 18.8515 7.9425 18.168 6.75025Z" stroke="#4785FF" stroke-width="2.5" stroke-linecap="round" stroke-linejoin="round"/>
</svg>
