<svg width="24" height="25" viewBox="0 0 24 25" fill="none" xmlns="http://www.w3.org/2000/svg">
<path d="M11.9951 17.1766V14.6396" stroke="#696767" stroke-width="2.5" stroke-linecap="round" stroke-linejoin="round"/>
<path fill-rule="evenodd" clip-rule="evenodd" d="M18.1899 5.83008C19.8799 5.83008 21.2399 7.20008 21.2399 8.89008V12.3301C18.7799 13.7701 15.5299 14.6401 11.9899 14.6401C8.44991 14.6401 5.20991 13.7701 2.74991 12.3301V8.88008C2.74991 7.19008 4.11991 5.83008 5.80991 5.83008H18.1899Z" stroke="#696767" stroke-width="2.5" stroke-linecap="round" stroke-linejoin="round"/>
<path d="M15.4951 5.82576V5.45976C15.4951 4.23976 14.5051 3.24976 13.2851 3.24976H10.7051C9.48512 3.24976 8.49512 4.23976 8.49512 5.45976V5.82576" stroke="#696767" stroke-width="2.5" stroke-linecap="round" stroke-linejoin="round"/>
<path d="M2.77441 15.9829L2.96341 18.4919C3.09141 20.1829 4.50041 21.4899 6.19541 21.4899H17.7944C19.4894 21.4899 20.8984 20.1829 21.0264 18.4919L21.2154 15.9829" stroke="#696767" stroke-width="2.5" stroke-linecap="round" stroke-linejoin="round"/>
</svg>
